# xmcd
#
# Track frame offsets: 
#        182
#        7465
#        24195
#        41567
#        59187
#        75392
#        92045
#        103790
#        121007
#        137205
#        159175
#        173610
#        189992
#        206707
#
# Disc length: 2997 seconds
#
# Revision: 5
# Processed by: cddbd v1.5.2PL0 Copyright (c) Steve Scherf et al.
# Submitted via: ExactAudioCopy v1.0b1
#
DISCID=b30bb30e
DTITLE=Keith Murray - Enigma
DYEAR=1996
DGENRE=Hip-Hop
TTITLE0=Intro
TTITLE1=Call My Name
TTITLE2=Manifique (Original Rules)
TTITLE3=Whut's Happnin'
TTITLE4=The Rhyme
TTITLE5=Dangerous Ground (feat. 50 Grand)
TTITLE6=Rhymin' Wit Kel (feat. Kel-Vicious)
TTITLE7=What A Feelin'
TTITLE8=Hot To Def
TTITLE9=Yeah (feat. Busta Rhymes, Redman, Erick Sermon and Jamal of Ille
TTITLE9=gal)
TTITLE10=Love L.O.D. (feat. 50 Grand and Kel-Vicious)
TTITLE11=To My Mans (feat. Dave Hollister)
TTITLE12=World Be Free
TTITLE13=The Rhyme - Remix
EXTD=
EXTT0=
EXTT1=
EXTT2=
EXTT3=
EXTT4=
EXTT5=
EXTT6=
EXTT7=
EXTT8=
EXTT9=
EXTT10=
EXTT11=
EXTT12=
EXTT13=
PLAYORDER=
